ETBook-BoldOSF.ufo
<glyph name="ampersand" format="2">
  <advance width="763"/>
  <unicode hex="0026"/>
  <outline>
    <contour>
      <point x="737" y="411" type="curve" smooth="yes"/>
      <point x="747" y="412"/>
      <point x="760" y="415"/>
      <point x="760" y="431" type="curve" smooth="yes"/>
      <point x="760" y="444" type="line"/>
      <point x="758" y="457"/>
      <point x="747" y="463"/>
      <point x="737" y="461" type="curve"/>
      <point x="688" y="459"/>
      <point x="604" y="459"/>
      <point x="566" y="460" type="curve" smooth="yes"/>
      <point x="564" y="460"/>
      <point x="563" y="460"/>
      <point x="562" y="460" type="curve" smooth="yes"/>
      <point x="553" y="460"/>
      <point x="545" y="457"/>
      <point x="543" y="447" type="curve" smooth="yes"/>
      <point x="541" y="438"/>
      <point x="542" y="419"/>
      <point x="554" y="413" type="curve"/>
      <point x="561" y="412"/>
      <point x="575" y="412"/>
      <point x="588" y="410" type="curve" smooth="yes"/>
      <point x="593" y="409"/>
      <point x="597" y="409"/>
      <point x="601" y="408" type="curve" smooth="yes"/>
      <point x="606" y="407"/>
      <point x="602" y="402"/>
      <point x="601" y="398" type="curve"/>
      <point x="595" y="381"/>
      <point x="581" y="349"/>
      <point x="556" y="310" type="curve" smooth="yes"/>
      <point x="537" y="282"/>
      <point x="515" y="252"/>
      <point x="498" y="230" type="curve" smooth="yes"/>
      <point x="494" y="225"/>
      <point x="492" y="223"/>
      <point x="488" y="230" type="curve"/>
      <point x="466" y="261"/>
      <point x="451" y="278"/>
      <point x="419" y="308" type="curve" smooth="yes"/>
      <point x="397" y="329"/>
      <point x="373" y="351"/>
      <point x="351" y="368" type="curve" smooth="yes"/>
      <point x="344" y="373"/>
      <point x="349" y="376"/>
      <point x="352" y="378" type="curve"/>
      <point x="411" y="412"/>
      <point x="446" y="455"/>
      <point x="446" y="504" type="curve" smooth="yes"/>
      <point x="446" y="574"/>
      <point x="379" y="618"/>
      <point x="299" y="618" type="curve" smooth="yes"/>
      <point x="209" y="618"/>
      <point x="142" y="567"/>
      <point x="142" y="485" type="curve" smooth="yes"/>
      <point x="142" y="442"/>
      <point x="165" y="397"/>
      <point x="202" y="361" type="curve" smooth="yes"/>
      <point x="203" y="360"/>
      <point x="203" y="358"/>
      <point x="200" y="355" type="curve"/>
      <point x="164" y="339"/>
      <point x="129" y="324"/>
      <point x="99" y="298" type="curve" smooth="yes"/>
      <point x="60" y="265"/>
      <point x="35" y="216"/>
      <point x="35" y="164" type="curve" smooth="yes"/>
      <point x="35" y="61"/>
      <point x="117" y="-19"/>
      <point x="220" y="-19" type="curve" smooth="yes"/>
      <point x="293" y="-19"/>
      <point x="374" y="23"/>
      <point x="447" y="94" type="curve"/>
      <point x="447" y="94"/>
      <point x="450" y="95"/>
      <point x="453" y="90" type="curve" smooth="yes"/>
      <point x="486" y="32"/>
      <point x="507" y="-19"/>
      <point x="589" y="-19" type="curve" smooth="yes"/>
      <point x="633" y="-19"/>
      <point x="679" y="2"/>
      <point x="726" y="39" type="curve"/>
      <point x="745" y="49"/>
      <point x="724" y="88"/>
      <point x="702" y="83" type="curve"/>
      <point x="662" y="56"/>
      <point x="641" y="47"/>
      <point x="626" y="47" type="curve" smooth="yes"/>
      <point x="607" y="47"/>
      <point x="594" y="53"/>
      <point x="558" y="119" type="curve" smooth="yes"/>
      <point x="547" y="137"/>
      <point x="538" y="155"/>
      <point x="526" y="173" type="curve" smooth="yes"/>
      <point x="523" y="178"/>
      <point x="526" y="179"/>
      <point x="530" y="184" type="curve" smooth="yes"/>
      <point x="553" y="210"/>
      <point x="582" y="249"/>
      <point x="603" y="286" type="curve" smooth="yes"/>
      <point x="607" y="293"/>
      <point x="618" y="316"/>
      <point x="631" y="340" type="curve" smooth="yes"/>
      <point x="644" y="363"/>
      <point x="658" y="386"/>
      <point x="667" y="395" type="curve" smooth="yes"/>
      <point x="683" y="410"/>
      <point x="717" y="408"/>
    </contour>
    <contour>
      <point x="292" y="566" type="curve" smooth="yes"/>
      <point x="327" y="566"/>
      <point x="351" y="541"/>
      <point x="351" y="496" type="curve" smooth="yes"/>
      <point x="351" y="457"/>
      <point x="338" y="432"/>
      <point x="306" y="410" type="curve"/>
      <point x="301" y="407"/>
      <point x="302" y="406"/>
      <point x="298" y="410" type="curve"/>
      <point x="259" y="442"/>
      <point x="241" y="477"/>
      <point x="241" y="510" type="curve" smooth="yes"/>
      <point x="241" y="547"/>
      <point x="261" y="566"/>
    </contour>
    <contour>
      <point x="418" y="148" type="curve"/>
      <point x="423" y="145"/>
      <point x="418" y="138"/>
      <point x="415" y="135" type="curve" smooth="yes"/>
      <point x="372" y="92"/>
      <point x="309" y="65"/>
      <point x="261" y="65" type="curve" smooth="yes"/>
      <point x="197" y="65"/>
      <point x="154" y="107"/>
      <point x="154" y="176" type="curve" smooth="yes"/>
      <point x="154" y="228"/>
      <point x="178" y="268"/>
      <point x="242" y="315" type="curve" smooth="yes"/>
      <point x="246" y="318"/>
      <point x="247" y="320"/>
      <point x="249" y="319" type="curve"/>
      <point x="312" y="277"/>
      <point x="376" y="211"/>
    </contour>
  </outline>
</glyph>
<glyph name="slash" format="2">
  <advance width="479"/>
  <unicode hex="002F"/>
  <outline>
    <contour>
      <point x="126" y="3" type="curve" smooth="yes"/>
      <point x="454" y="633" type="line"/>
      <point x="466" y="652"/>
      <point x="460" y="672"/>
      <point x="442" y="675" type="curve" smooth="yes"/>
      <point x="413" y="679"/>
      <point x="383" y="689"/>
      <point x="366" y="656" type="curve" smooth="yes"/>
      <point x="254" y="442"/>
      <point x="148" y="233"/>
      <point x="36" y="19" type="curve" smooth="yes"/>
      <point x="22" y="-7"/>
      <point x="43" y="-18"/>
      <point x="58" y="-20" type="curve" smooth="yes"/>
      <point x="65" y="-21"/>
      <point x="73" y="-21"/>
      <point x="81" y="-21" type="curve" smooth="yes"/>
      <point x="106" y="-21"/>
      <point x="112" y="-23"/>
    </contour>
  </outline>
</glyph>
<glyph name="three" format="2">
  <advance width="435"/>
  <unicode hex="0033"/>
  <outline>
    <contour>
      <point x="149" y="-180" type="curve" smooth="yes"/>
      <point x="261" y="-180"/>
      <point x="350" y="-70"/>
      <point x="350" y="52" type="curve" smooth="yes"/>
      <point x="350" y="110"/>
      <point x="323" y="148"/>
      <point x="288" y="178" type="curve"/>
      <point x="282" y="182"/>
      <point x="274" y="188"/>
      <point x="264" y="192" type="curve"/>
      <point x="260" y="193"/>
      <point x="256" y="197"/>
      <point x="261" y="201" type="curve"/>
      <point x="302" y="240"/>
      <point x="335" y="263"/>
      <point x="335" y="330" type="curve" smooth="yes"/>
      <point x="335" y="401"/>
      <point x="281" y="458"/>
      <point x="212" y="458" type="curve" smooth="yes"/>
      <point x="150" y="458"/>
      <point x="97" y="418"/>
      <point x="63" y="352" type="curve"/>
      <point x="60" y="339"/>
      <point x="65" y="329"/>
      <point x="72" y="323" type="curve" smooth="yes"/>
      <point x="86" y="312"/>
      <point x="97" y="320"/>
      <point x="107" y="330" type="curve" smooth="yes"/>
      <point x="130" y="353"/>
      <point x="146" y="374"/>
      <point x="184" y="374" type="curve" smooth="yes"/>
      <point x="216" y="374"/>
      <point x="238" y="354"/>
      <point x="238" y="310" type="curve" smooth="yes"/>
      <point x="238" y="259"/>
      <point x="204" y="205"/>
      <point x="122" y="155" type="curve"/>
      <point x="111" y="147"/>
      <point x="115" y="103"/>
      <point x="140" y="110" type="curve" smooth="yes"/>
      <point x="170" y="118"/>
      <point x="191" y="118"/>
      <point x="213" y="98" type="curve" smooth="yes"/>
      <point x="238" y="77"/>
      <point x="249" y="50"/>
      <point x="249" y="-11" type="curve" smooth="yes"/>
      <point x="249" y="-82"/>
      <point x="221" y="-116"/>
      <point x="195" y="-116" type="curve" smooth="yes"/>
      <point x="181" y="-116"/>
      <point x="168" y="-112"/>
      <point x="138" y="-89" type="curve"/>
      <point x="132" y="-85"/>
      <point x="127" y="-80"/>
      <point x="121" y="-76" type="curve"/>
      <point x="92" y="-59"/>
      <point x="49" y="-75"/>
      <point x="49" y="-115" type="curve" smooth="yes"/>
      <point x="49" y="-160"/>
      <point x="94" y="-180"/>
    </contour>
  </outline>
</glyph>
<glyph name="four" format="2">
  <advance width="489"/>
  <unicode hex="0034"/>
  <outline>
    <contour>
      <point x="435" y="-7" type="line"/>
      <point x="449" y="-9"/>
      <point x="462" y="-3"/>
      <point x="462" y="16" type="curve" smooth="yes"/>
      <point x="462" y="21"/>
      <point x="462" y="28"/>
      <point x="462" y="35" type="curve" smooth="yes"/>
      <point x="462" y="42"/>
      <point x="462" y="50"/>
      <point x="461" y="55" type="curve" smooth="yes"/>
      <point x="457" y="74"/>
      <point x="453" y="70"/>
      <point x="439" y="73" type="curve"/>
      <point x="352" y="72" type="line"/>
      <point x="349" y="74"/>
      <point x="348" y="75"/>
      <point x="347" y="79" type="curve"/>
      <point x="347" y="444" type="line" smooth="yes"/>
      <point x="347" y="450"/>
      <point x="341" y="454"/>
      <point x="335" y="457" type="curve"/>
      <point x="322" y="458"/>
      <point x="306" y="456"/>
      <point x="298" y="445" type="curve" smooth="yes"/>
      <point x="26" y="36" type="line"/>
      <point x="20" y="28"/>
      <point x="18" y="-2"/>
      <point x="36" y="-6" type="curve"/>
      <point x="108" y="-6"/>
      <point x="172" y="-6"/>
      <point x="237" y="-6" type="curve" smooth="yes"/>
      <point x="241" y="-6"/>
      <point x="246" y="-15"/>
      <point x="246" y="-17" type="curve" smooth="yes"/>
      <point x="246" y="-60"/>
      <point x="245" y="-134"/>
      <point x="245" y="-159" type="curve" smooth="yes"/>
      <point x="245" y="-174"/>
      <point x="252" y="-178"/>
      <point x="272" y="-178" type="curve" smooth="yes"/>
      <point x="328" y="-178" type="line" smooth="yes"/>
      <point x="339" y="-178"/>
      <point x="345" y="-173"/>
      <point x="347" y="-166" type="curve"/>
      <point x="348" y="-160"/>
      <point x="347" y="-155"/>
      <point x="347" y="-150" type="curve" smooth="yes"/>
      <point x="348" y="-119"/>
      <point x="348" y="-70"/>
      <point x="347" y="-21" type="curve" smooth="yes"/>
      <point x="347" y="-14"/>
      <point x="353" y="-6"/>
      <point x="357" y="-6" type="curve" smooth="yes"/>
    </contour>
    <contour>
      <point x="117" y="73" type="curve"/>
      <point x="240" y="260" type="line" smooth="yes"/>
      <point x="248" y="271"/>
      <point x="249" y="266"/>
      <point x="249" y="259" type="curve"/>
      <point x="248" y="195"/>
      <point x="247" y="133"/>
      <point x="247" y="83" type="curve" smooth="yes"/>
      <point x="247" y="78"/>
      <point x="244" y="72"/>
      <point x="242" y="72" type="curve" smooth="yes"/>
      <point x="197" y="72"/>
      <point x="177" y="70"/>
      <point x="122" y="72" type="curve"/>
      <point x="122" y="72"/>
      <point x="119" y="72"/>
    </contour>
  </outline>
</glyph>
<glyph name="five" format="2">
  <advance width="445"/>
  <unicode hex="0035"/>
  <outline>
    <contour>
      <point x="346" y="358" type="curve" smooth="yes"/>
      <point x="351" y="363"/>
      <point x="376" y="397"/>
      <point x="380" y="413" type="curve" smooth="yes"/>
      <point x="386" y="434"/>
      <point x="372" y="439"/>
      <point x="355" y="441" type="curve" smooth="yes"/>
      <point x="245" y="454" type="line" smooth="yes"/>
      <point x="234" y="455"/>
      <point x="229" y="452"/>
      <point x="222" y="445" type="curve"/>
      <point x="185" y="404"/>
      <point x="116" y="318"/>
      <point x="84" y="274" type="curve"/>
      <point x="81" y="269"/>
      <point x="72" y="249"/>
      <point x="87" y="240" type="curve" smooth="yes"/>
      <point x="171" y="187"/>
      <point x="279" y="111"/>
      <point x="279" y="13" type="curve" smooth="yes"/>
      <point x="279" y="-53"/>
      <point x="233" y="-104"/>
      <point x="187" y="-104" type="curve" smooth="yes"/>
      <point x="177" y="-104"/>
      <point x="162" y="-101"/>
      <point x="119" y="-86" type="curve"/>
      <point x="110" y="-82"/>
      <point x="99" y="-79"/>
      <point x="91" y="-79" type="curve" smooth="yes"/>
      <point x="65" y="-79"/>
      <point x="46" y="-102"/>
      <point x="46" y="-127" type="curve" smooth="yes"/>
      <point x="46" y="-160"/>
      <point x="74" y="-177"/>
      <point x="107" y="-177" type="curve" smooth="yes"/>
      <point x="159" y="-177"/>
      <point x="216" y="-161"/>
      <point x="264" y="-130" type="curve" smooth="yes"/>
      <point x="329" y="-88"/>
      <point x="371" y="-26"/>
      <point x="371" y="43" type="curve" smooth="yes"/>
      <point x="371" y="106"/>
      <point x="332" y="173"/>
      <point x="275" y="228" type="curve" smooth="yes"/>
      <point x="241" y="259"/>
      <point x="222" y="275"/>
      <point x="182" y="300" type="curve"/>
      <point x="178" y="302"/>
      <point x="175" y="300"/>
      <point x="178" y="304" type="curve"/>
      <point x="193" y="321"/>
      <point x="207" y="339"/>
      <point x="222" y="357" type="curve"/>
      <point x="225" y="361"/>
      <point x="225" y="361"/>
      <point x="230" y="360" type="curve"/>
      <point x="321" y="348" type="line"/>
      <point x="332" y="348"/>
      <point x="338" y="350"/>
    </contour>
  </outline>
</glyph>
<glyph name="seven" format="2">
  <advance width="489"/>
  <unicode hex="0037"/>
  <outline>
    <contour>
      <point x="206" y="-159" type="curve" smooth="yes"/>
      <point x="253" y="-62"/>
      <point x="353" y="173"/>
      <point x="443" y="407" type="curve"/>
      <point x="443" y="431" type="line"/>
      <point x="437" y="444"/>
      <point x="423" y="442"/>
      <point x="412" y="442" type="curve" smooth="yes"/>
      <point x="333" y="445"/>
      <point x="176" y="445"/>
      <point x="97" y="442" type="curve" smooth="yes"/>
      <point x="89" y="442"/>
      <point x="66" y="439"/>
      <point x="57" y="418" type="curve"/>
      <point x="37" y="271" type="line" smooth="yes"/>
      <point x="34" y="245"/>
      <point x="78" y="249"/>
      <point x="84" y="258" type="curve"/>
      <point x="97" y="308" type="line" smooth="yes"/>
      <point x="103" y="330"/>
      <point x="108" y="340"/>
      <point x="114" y="344" type="curve"/>
      <point x="120" y="349"/>
      <point x="129" y="349"/>
      <point x="137" y="349" type="curve" smooth="yes"/>
      <point x="185" y="350"/>
      <point x="261" y="350"/>
      <point x="336" y="351" type="curve" smooth="yes"/>
      <point x="337" y="351"/>
      <point x="347" y="350"/>
      <point x="346" y="348" type="curve" smooth="yes"/>
      <point x="124" y="-143" type="line" smooth="yes"/>
      <point x="115" y="-163"/>
      <point x="134" y="-173"/>
      <point x="143" y="-174" type="curve" smooth="yes"/>
      <point x="182" y="-179" type="line" smooth="yes"/>
      <point x="194" y="-181"/>
      <point x="201" y="-169"/>
    </contour>
  </outline>
</glyph>
<glyph name="semicolon" format="2">
  <advance width="230"/>
  <unicode hex="003B"/>
  <outline>
    <contour>
      <point x="118" y="284" type="curve" smooth="yes"/>
      <point x="149" y="284"/>
      <point x="175" y="307"/>
      <point x="175" y="340" type="curve" smooth="yes"/>
      <point x="175" y="374"/>
      <point x="149" y="396"/>
      <point x="118" y="396" type="curve" smooth="yes"/>
      <point x="86" y="396"/>
      <point x="62" y="373"/>
      <point x="62" y="340" type="curve" smooth="yes"/>
      <point x="62" y="308"/>
      <point x="86" y="284"/>
    </contour>
    <contour>
      <point x="122" y="-17" type="curve"/>
      <point x="128" y="-16"/>
      <point x="129" y="-14"/>
      <point x="129" y="-18" type="curve" smooth="yes"/>
      <point x="129" y="-43"/>
      <point x="112" y="-69"/>
      <point x="72" y="-95" type="curve"/>
      <point x="51" y="-105"/>
      <point x="67" y="-143"/>
      <point x="89" y="-134" type="curve" smooth="yes"/>
      <point x="150" y="-109"/>
      <point x="191" y="-52"/>
      <point x="191" y="9" type="curve" smooth="yes"/>
      <point x="191" y="57"/>
      <point x="162" y="94"/>
      <point x="120" y="94" type="curve" smooth="yes"/>
      <point x="88" y="94"/>
      <point x="61" y="70"/>
      <point x="61" y="36" type="curve" smooth="yes"/>
      <point x="61" y="7"/>
      <point x="82" y="-18"/>
      <point x="111" y="-18" type="curve" smooth="yes"/>
      <point x="115" y="-18"/>
      <point x="119" y="-17"/>
    </contour>
  </outline>
</glyph>
<glyph name="equal" format="2">
  <advance width="698"/>
  <unicode hex="003D"/>
  <outline>
    <contour>
      <point x="625" y="412" type="curve"/>
      <point x="633" y="416"/>
      <point x="636" y="424"/>
      <point x="636" y="436" type="curve" smooth="yes"/>
      <point x="636" y="444"/>
      <point x="635" y="451"/>
      <point x="635" y="456" type="curve" smooth="yes"/>
      <point x="635" y="475"/>
      <point x="633" y="497"/>
      <point x="604" y="496" type="curve" smooth="yes"/>
      <point x="482" y="493"/>
      <point x="226" y="494"/>
      <point x="100" y="493" type="curve" smooth="yes"/>
      <point x="90" y="493"/>
      <point x="73" y="490"/>
      <point x="69" y="473" type="curve"/>
      <point x="67" y="436" type="line"/>
      <point x="71" y="420"/>
      <point x="75" y="407"/>
      <point x="97" y="410" type="curve"/>
      <point x="600" y="410" type="line" smooth="yes"/>
      <point x="608" y="410"/>
      <point x="618" y="409"/>
    </contour>
    <contour>
      <point x="635" y="216" type="curve" smooth="yes"/>
      <point x="636" y="239"/>
      <point x="643" y="271"/>
      <point x="607" y="271" type="curve" smooth="yes"/>
      <point x="472" y="271"/>
      <point x="227" y="270"/>
      <point x="101" y="272" type="curve"/>
      <point x="98" y="273"/>
      <point x="94" y="272"/>
      <point x="90" y="272" type="curve" smooth="yes"/>
      <point x="72" y="272"/>
      <point x="63" y="265"/>
      <point x="63" y="246" type="curve" smooth="yes"/>
      <point x="63" y="216" type="line" smooth="yes"/>
      <point x="63" y="189"/>
      <point x="81" y="186"/>
      <point x="100" y="186" type="curve" smooth="yes"/>
      <point x="607" y="186" type="line" smooth="yes"/>
      <point x="636" y="186"/>
      <point x="634" y="195"/>
    </contour>
  </outline>
</glyph>
<glyph name="question" format="2">
  <advance width="362"/>
  <unicode hex="003F"/>
  <outline>
    <contour>
      <point x="254" y="320" type="curve" smooth="yes"/>
      <point x="302" y="354"/>
      <point x="330" y="405"/>
      <point x="330" y="473" type="curve" smooth="yes"/>
      <point x="330" y="588"/>
      <point x="251" y="670"/>
      <point x="140" y="670" type="curve" smooth="yes"/>
      <point x="87" y="670"/>
      <point x="37" y="654"/>
      <point x="37" y="606" type="curve" smooth="yes"/>
      <point x="37" y="568"/>
      <point x="70" y="552"/>
      <point x="110" y="552" type="curve" smooth="yes"/>
      <point x="135" y="552"/>
      <point x="157" y="559"/>
      <point x="185" y="559" type="curve" smooth="yes"/>
      <point x="242" y="559"/>
      <point x="271" y="532"/>
      <point x="271" y="488" type="curve" smooth="yes"/>
      <point x="271" y="366"/>
      <point x="84" y="421"/>
      <point x="84" y="285" type="curve" smooth="yes"/>
      <point x="84" y="249"/>
      <point x="101" y="213"/>
      <point x="138" y="170" type="curve" smooth="yes"/>
      <point x="145" y="161"/>
      <point x="166" y="155"/>
      <point x="178" y="159" type="curve"/>
      <point x="184" y="162"/>
      <point x="194" y="176"/>
      <point x="188" y="185" type="curve"/>
      <point x="155" y="224"/>
      <point x="149" y="238"/>
      <point x="149" y="253" type="curve" smooth="yes"/>
      <point x="149" y="265"/>
      <point x="153" y="274"/>
      <point x="183" y="284" type="curve" smooth="yes"/>
      <point x="220" y="298"/>
      <point x="231" y="305"/>
    </contour>
    <contour>
      <point x="156" y="-11" type="curve" smooth="yes"/>
      <point x="190" y="-11"/>
      <point x="216" y="13"/>
      <point x="216" y="47" type="curve" smooth="yes"/>
      <point x="216" y="81"/>
      <point x="190" y="104"/>
      <point x="156" y="104" type="curve" smooth="yes"/>
      <point x="123" y="104"/>
      <point x="96" y="81"/>
      <point x="96" y="47" type="curve" smooth="yes"/>
      <point x="96" y="13"/>
      <point x="123" y="-11"/>
    </contour>
  </outline>
</glyph>
<glyph name="F" format="2">
  <advance width="543"/>
  <unicode hex="0046"/>
  <outline>
    <contour>
      <point x="501" y="511" type="curve"/>
      <point x="504" y="622" type="line" smooth="yes"/>
      <point x="504" y="635"/>
      <point x="491" y="650"/>
      <point x="478" y="650" type="curve" smooth="yes"/>
      <point x="365" y="651"/>
      <point x="171" y="651"/>
      <point x="58" y="650" type="curve"/>
      <point x="31" y="653"/>
      <point x="31" y="602"/>
      <point x="52" y="597" type="curve"/>
      <point x="101" y="595"/>
      <point x="113" y="587"/>
      <point x="113" y="542" type="curve" smooth="yes"/>
      <point x="113" y="106" type="line" smooth="yes"/>
      <point x="113" y="61"/>
      <point x="104" y="53"/>
      <point x="52" y="50" type="curve"/>
      <point x="35" y="47"/>
      <point x="29" y="-4"/>
      <point x="56" y="-3" type="curve" smooth="yes"/>
      <point x="131" y="-1"/>
      <point x="229" y="-1"/>
      <point x="302" y="-3" type="curve" smooth="yes"/>
      <point x="313" y="-3"/>
      <point x="320" y="10"/>
      <point x="320" y="23" type="curve" smooth="yes"/>
      <point x="320" y="37"/>
      <point x="318" y="50"/>
      <point x="304" y="52" type="curve"/>
      <point x="293" y="52" type="line" smooth="yes"/>
      <point x="241" y="52"/>
      <point x="231" y="61"/>
      <point x="231" y="106" type="curve" smooth="yes"/>
      <point x="231" y="299" type="line" smooth="yes"/>
      <point x="231" y="304"/>
      <point x="240" y="312"/>
      <point x="248" y="313" type="curve"/>
      <point x="277" y="312"/>
      <point x="325" y="312"/>
      <point x="353" y="313" type="curve" smooth="yes"/>
      <point x="425" y="315"/>
      <point x="430" y="308"/>
      <point x="435" y="251" type="curve" smooth="yes"/>
      <point x="438" y="223"/>
      <point x="481" y="240"/>
      <point x="483" y="251" type="curve"/>
      <point x="485" y="302"/>
      <point x="483" y="417"/>
      <point x="483" y="426" type="curve"/>
      <point x="480" y="450"/>
      <point x="437" y="444"/>
      <point x="434" y="423" type="curve" smooth="yes"/>
      <point x="430" y="384"/>
      <point x="427" y="381"/>
      <point x="357" y="381" type="curve" smooth="yes"/>
      <point x="316" y="380"/>
      <point x="291" y="378"/>
      <point x="251" y="381" type="curve"/>
      <point x="242" y="383"/>
      <point x="230" y="381"/>
      <point x="230" y="397" type="curve" smooth="yes"/>
      <point x="231" y="572" type="line"/>
      <point x="233" y="581"/>
      <point x="247" y="583"/>
      <point x="251" y="583" type="curve" smooth="yes"/>
      <point x="354" y="583" type="line" smooth="yes"/>
      <point x="438" y="583"/>
      <point x="447" y="574"/>
      <point x="451" y="523" type="curve"/>
      <point x="451" y="515"/>
      <point x="453" y="508"/>
      <point x="462" y="506" type="curve" smooth="yes"/>
      <point x="473" y="503"/>
      <point x="486" y="501"/>
    </contour>
  </outline>
</glyph>
<glyph name="H" format="2">
  <advance width="788"/>
  <unicode hex="0048"/>
  <outline>
    <contour>
      <point x="751" y="-3" type="curve" smooth="yes"/>
      <point x="776" y="-4"/>
      <point x="795" y="56"/>
      <point x="741" y="56" type="curve" smooth="yes"/>
      <point x="691" y="56"/>
      <point x="676" y="69"/>
      <point x="676" y="106" type="curve" smooth="yes"/>
      <point x="676" y="200"/>
      <point x="673" y="394"/>
      <point x="676" y="542" type="curve" smooth="yes"/>
      <point x="678" y="586"/>
      <point x="700" y="593"/>
      <point x="732" y="596" type="curve"/>
      <point x="734" y="596"/>
      <point x="738" y="596"/>
      <point x="741" y="597" type="curve"/>
      <point x="770" y="603"/>
      <point x="759" y="651"/>
      <point x="732" y="650" type="curve" smooth="yes"/>
      <point x="673" y="648"/>
      <point x="556" y="655"/>
      <point x="484" y="653" type="curve" smooth="yes"/>
      <point x="473" y="653"/>
      <point x="464" y="651"/>
      <point x="457" y="638" type="curve"/>
      <point x="453" y="626"/>
      <point x="454" y="602"/>
      <point x="473" y="599" type="curve"/>
      <point x="515" y="597"/>
      <point x="559" y="599"/>
      <point x="559" y="542" type="curve" smooth="yes"/>
      <point x="559" y="484"/>
      <point x="560" y="436"/>
      <point x="559" y="377" type="curve"/>
      <point x="559" y="367"/>
      <point x="544" y="361"/>
      <point x="540" y="360" type="curve"/>
      <point x="431" y="359"/>
      <point x="340" y="360"/>
      <point x="240" y="360" type="curve" smooth="yes"/>
      <point x="234" y="360"/>
      <point x="228" y="365"/>
      <point x="228" y="375" type="curve" smooth="yes"/>
      <point x="228" y="542" type="line" smooth="yes"/>
      <point x="228" y="582"/>
      <point x="240" y="599"/>
      <point x="293" y="599" type="curve"/>
      <point x="303" y="600"/>
      <point x="312" y="600"/>
      <point x="315" y="612" type="curve"/>
      <point x="317" y="623"/>
      <point x="319" y="635"/>
      <point x="310" y="644" type="curve"/>
      <point x="303" y="648"/>
      <point x="302" y="651"/>
      <point x="293" y="650" type="curve"/>
      <point x="237" y="647"/>
      <point x="120" y="647"/>
      <point x="57" y="650" type="curve" smooth="yes"/>
      <point x="40" y="651"/>
      <point x="31" y="600"/>
      <point x="55" y="598" type="curve"/>
      <point x="61" y="598" type="line"/>
      <point x="100" y="595"/>
      <point x="111" y="586"/>
      <point x="111" y="542" type="curve" smooth="yes"/>
      <point x="111" y="106" type="line" smooth="yes"/>
      <point x="111" y="64"/>
      <point x="101" y="57"/>
      <point x="60" y="55" type="curve" smooth="yes"/>
      <point x="54" y="55"/>
      <point x="47" y="56"/>
      <point x="41" y="55" type="curve"/>
      <point x="18" y="53"/>
      <point x="15" y="28"/>
      <point x="22" y="10" type="curve" smooth="yes"/>
      <point x="27" y="-2"/>
      <point x="39" y="-3"/>
      <point x="47" y="-3" type="curve" smooth="yes"/>
      <point x="109" y="-3"/>
      <point x="234" y="-1"/>
      <point x="298" y="-3" type="curve"/>
      <point x="332" y="2"/>
      <point x="324" y="57"/>
      <point x="297" y="54" type="curve"/>
      <point x="288" y="54" type="line" smooth="yes"/>
      <point x="238" y="54"/>
      <point x="228" y="62"/>
      <point x="228" y="106" type="curve" smooth="yes"/>
      <point x="228" y="280" type="line" smooth="yes"/>
      <point x="228" y="290"/>
      <point x="237" y="294"/>
      <point x="238" y="294" type="curve" smooth="yes"/>
      <point x="341" y="294"/>
      <point x="444" y="293"/>
      <point x="541" y="294" type="curve" smooth="yes"/>
      <point x="546" y="294"/>
      <point x="558" y="292"/>
      <point x="559" y="287" type="curve"/>
      <point x="559" y="106" type="line" smooth="yes"/>
      <point x="559" y="65"/>
      <point x="543" y="55"/>
      <point x="494" y="55" type="curve" smooth="yes"/>
      <point x="470" y="55" type="line" smooth="yes"/>
      <point x="447" y="55"/>
      <point x="444" y="26"/>
      <point x="448" y="13" type="curve"/>
      <point x="450" y="2"/>
      <point x="460" y="-3"/>
      <point x="471" y="-3" type="curve" smooth="yes"/>
      <point x="604" y="-3"/>
      <point x="682" y="-1"/>
    </contour>
  </outline>
</glyph>
<glyph name="I" format="2">
  <advance width="363"/>
  <unicode hex="0049"/>
  <outline>
    <contour>
      <point x="319" y="608" type="curve"/>
      <point x="322" y="615"/>
      <point x="323" y="624"/>
      <point x="322" y="631" type="curve" smooth="yes"/>
      <point x="320" y="649"/>
      <point x="306" y="651"/>
      <point x="296" y="651" type="curve" smooth="yes"/>
      <point x="179" y="646"/>
      <point x="154" y="650"/>
      <point x="76" y="651" type="curve" smooth="yes"/>
      <point x="73" y="651"/>
      <point x="71" y="651"/>
      <point x="70" y="651" type="curve" smooth="yes"/>
      <point x="47" y="650"/>
      <point x="43" y="612"/>
      <point x="59" y="601" type="curve"/>
      <point x="63" y="599"/>
      <point x="69" y="598"/>
      <point x="73" y="598" type="curve"/>
      <point x="119" y="593"/>
      <point x="122" y="588"/>
      <point x="123" y="542" type="curve" smooth="yes"/>
      <point x="124" y="508" type="line"/>
      <point x="124" y="140" type="line"/>
      <point x="123" y="106" type="line" smooth="yes"/>
      <point x="122" y="66"/>
      <point x="115" y="58"/>
      <point x="73" y="53" type="curve"/>
      <point x="68" y="53"/>
      <point x="64" y="53"/>
      <point x="60" y="52" type="curve"/>
      <point x="44" y="49"/>
      <point x="45" y="34"/>
      <point x="45" y="22" type="curve" smooth="yes"/>
      <point x="45" y="8"/>
      <point x="54" y="-4"/>
      <point x="67" y="-4" type="curve" smooth="yes"/>
      <point x="127" y="-2"/>
      <point x="245" y="-2"/>
      <point x="306" y="-4" type="curve" smooth="yes"/>
      <point x="323" y="-4"/>
      <point x="329" y="24"/>
      <point x="322" y="41" type="curve" smooth="yes"/>
      <point x="317" y="52"/>
      <point x="312" y="54"/>
      <point x="302" y="54" type="curve"/>
      <point x="289" y="55"/>
      <point x="263" y="54"/>
      <point x="251" y="61" type="curve"/>
      <point x="243" y="67"/>
      <point x="238" y="78"/>
      <point x="238" y="106" type="curve" smooth="yes"/>
      <point x="238" y="508" type="line" smooth="yes"/>
      <point x="238" y="595"/>
      <point x="244" y="597"/>
      <point x="294" y="598" type="curve" smooth="yes"/>
      <point x="302" y="598"/>
      <point x="314" y="600"/>
    </contour>
  </outline>
</glyph>
<glyph name="J" format="2">
  <advance width="324"/>
  <unicode hex="004A"/>
  <outline>
    <contour>
      <point x="277" y="597" type="curve"/>
      <point x="282" y="597"/>
      <point x="288" y="598"/>
      <point x="292" y="600" type="curve"/>
      <point x="304" y="603"/>
      <point x="317" y="650"/>
      <point x="283" y="650" type="curve" smooth="yes"/>
      <point x="178" y="651"/>
      <point x="114" y="649"/>
      <point x="55" y="649" type="curve"/>
      <point x="46" y="650"/>
      <point x="40" y="650"/>
      <point x="34" y="650" type="curve"/>
      <point x="16" y="652"/>
      <point x="10" y="637"/>
      <point x="10" y="626" type="curve" smooth="yes"/>
      <point x="10" y="615"/>
      <point x="13" y="599"/>
      <point x="26" y="598" type="curve"/>
      <point x="30" y="598"/>
      <point x="36" y="595"/>
      <point x="42" y="596" type="curve"/>
      <point x="93" y="596"/>
      <point x="104" y="588"/>
      <point x="105" y="541" type="curve" smooth="yes"/>
      <point x="106" y="521"/>
      <point x="106" y="501"/>
      <point x="106" y="481" type="curve" smooth="yes"/>
      <point x="106" y="427"/>
      <point x="106" y="305"/>
      <point x="106" y="11" type="curve" smooth="yes"/>
      <point x="106" y="-126"/>
      <point x="102" y="-160"/>
      <point x="83" y="-188" type="curve" smooth="yes"/>
      <point x="71" y="-205"/>
      <point x="45" y="-215"/>
      <point x="29" y="-206" type="curve" smooth="yes"/>
      <point x="21" y="-201"/>
      <point x="14" y="-195"/>
      <point x="6" y="-189" type="curve" smooth="yes"/>
      <point x="-8" y="-178"/>
      <point x="-22" y="-162"/>
      <point x="-42" y="-162" type="curve" smooth="yes"/>
      <point x="-72" y="-162"/>
      <point x="-95" y="-189"/>
      <point x="-95" y="-218" type="curve" smooth="yes"/>
      <point x="-95" y="-263"/>
      <point x="-47" y="-289"/>
      <point x="10" y="-289" type="curve" smooth="yes"/>
      <point x="73" y="-289"/>
      <point x="120" y="-252"/>
      <point x="155" y="-197" type="curve" smooth="yes"/>
      <point x="201" y="-127"/>
      <point x="221" y="-7"/>
      <point x="221" y="75" type="curve" smooth="yes"/>
      <point x="221" y="541" type="line" smooth="yes"/>
      <point x="221" y="575"/>
      <point x="234" y="594"/>
      <point x="260" y="596" type="curve"/>
      <point x="264" y="596"/>
      <point x="271" y="596"/>
    </contour>
  </outline>
</glyph>
<glyph name="f" format="2">
  <advance width="324"/>
  <unicode hex="0066"/>
  <outline>
    <contour>
      <point x="426" y="616" type="curve" smooth="yes"/>
      <point x="436" y="631"/>
      <point x="447" y="650"/>
      <point x="447" y="662" type="curve" smooth="yes"/>
      <point x="447" y="668"/>
      <point x="446" y="674"/>
      <point x="443" y="679" type="curve"/>
      <point x="419" y="713"/>
      <point x="360" y="727"/>
      <point x="328" y="727" type="curve" smooth="yes"/>
      <point x="272" y="727"/>
      <point x="217" y="700"/>
      <point x="167" y="646" type="curve" smooth="yes"/>
      <point x="112" y="586"/>
      <point x="99" y="540"/>
      <point x="95" y="465" type="curve"/>
      <point x="95" y="449"/>
      <point x="94" y="441"/>
      <point x="94" y="431" type="curve" smooth="yes"/>
      <point x="94" y="428"/>
      <point x="94" y="424"/>
      <point x="93" y="421" type="curve" smooth="yes"/>
      <point x="89" y="410"/>
      <point x="34" y="397"/>
      <point x="27" y="395" type="curve"/>
      <point x="16" y="388"/>
      <point x="17" y="367"/>
      <point x="20" y="357" type="curve" smooth="yes"/>
      <point x="23" y="347"/>
      <point x="32" y="346"/>
      <point x="41" y="346" type="curve" smooth="yes"/>
      <point x="87" y="346" type="line"/>
      <point x="89" y="345"/>
      <point x="93" y="339"/>
      <point x="93" y="337" type="curve" smooth="yes"/>
      <point x="93" y="330" type="line"/>
      <point x="93" y="138" type="line" smooth="yes"/>
      <point x="93" y="58"/>
      <point x="89" y="51"/>
      <point x="52" y="51" type="curve" smooth="yes"/>
      <point x="41" y="51"/>
      <point x="31" y="50"/>
      <point x="25" y="38" type="curve"/>
      <point x="23" y="33"/>
      <point x="22" y="26"/>
      <point x="22" y="23" type="curve" smooth="yes"/>
      <point x="22" y="13"/>
      <point x="27" y="-4"/>
      <point x="41" y="-3" type="curve" smooth="yes"/>
      <point x="101" y="0"/>
      <point x="224" y="-1"/>
      <point x="286" y="-3" type="curve" smooth="yes"/>
      <point x="297" y="-3"/>
      <point x="305" y="12"/>
      <point x="305" y="23" type="curve"/>
      <point x="304" y="37"/>
      <point x="301" y="52"/>
      <point x="283" y="53" type="curve" smooth="yes"/>
      <point x="264" y="55"/>
      <point x="214" y="48"/>
      <point x="202" y="64" type="curve" smooth="yes"/>
      <point x="196" y="72"/>
      <point x="194" y="86"/>
      <point x="194" y="135" type="curve" smooth="yes"/>
      <point x="194" y="332" type="line" smooth="yes"/>
      <point x="194" y="338"/>
      <point x="194" y="344"/>
      <point x="196" y="344" type="curve" smooth="yes"/>
      <point x="277" y="343" type="line" smooth="yes"/>
      <point x="293" y="343"/>
      <point x="298" y="347"/>
      <point x="300" y="361" type="curve"/>
      <point x="300" y="361"/>
      <point x="298" y="390"/>
      <point x="293" y="410" type="curve"/>
      <point x="292" y="412"/>
      <point x="292" y="413"/>
      <point x="291" y="414" type="curve"/>
      <point x="288" y="423"/>
      <point x="277" y="424"/>
      <point x="268" y="424" type="curve" smooth="yes"/>
      <point x="200" y="424" type="line" smooth="yes"/>
      <point x="197" y="424"/>
      <point x="194" y="426"/>
      <point x="194" y="437" type="curve" smooth="yes"/>
      <point x="193" y="500" type="line" smooth="yes"/>
      <point x="192" y="544"/>
      <point x="197" y="568"/>
      <point x="206" y="593" type="curve" smooth="yes"/>
      <point x="219" y="628"/>
      <point x="249" y="650"/>
      <point x="284" y="650" type="curve" smooth="yes"/>
      <point x="310" y="650"/>
      <point x="346" y="635"/>
      <point x="371" y="614" type="curve" smooth="yes"/>
      <point x="386" y="602"/>
      <point x="408" y="587"/>
    </contour>
  </outline>
</glyph>
<glyph name="s" format="2">
  <advance width="327"/>
  <unicode hex="0073"/>
  <outline>
    <contour>
      <point x="161" y="-10" type="curve" smooth="yes"/>
      <point x="235" y="-10"/>
      <point x="300" y="48"/>
      <point x="300" y="121" type="curve" smooth="yes"/>
      <point x="300" y="177"/>
      <point x="260" y="216"/>
      <point x="218" y="245" type="curve" smooth="yes"/>
      <point x="190" y="264"/>
      <point x="117" y="300"/>
      <point x="117" y="339" type="curve" smooth="yes"/>
      <point x="117" y="362"/>
      <point x="135" y="379"/>
      <point x="160" y="379" type="curve" smooth="yes"/>
      <point x="187" y="379"/>
      <point x="212" y="358"/>
      <point x="222" y="307" type="curve"/>
      <point x="223" y="298"/>
      <point x="236" y="294"/>
      <point x="244" y="294" type="curve" smooth="yes"/>
      <point x="255" y="294"/>
      <point x="267" y="302"/>
      <point x="268" y="309" type="curve"/>
      <point x="270" y="334"/>
      <point x="269" y="382"/>
      <point x="266" y="414" type="curve"/>
      <point x="232" y="428"/>
      <point x="203" y="435"/>
      <point x="175" y="435" type="curve" smooth="yes"/>
      <point x="96" y="435"/>
      <point x="33" y="385"/>
      <point x="33" y="309" type="curve" smooth="yes"/>
      <point x="33" y="235"/>
      <point x="102" y="200"/>
      <point x="155" y="163" type="curve" smooth="yes"/>
      <point x="179" y="146"/>
      <point x="208" y="123"/>
      <point x="208" y="91" type="curve" smooth="yes"/>
      <point x="208" y="63"/>
      <point x="187" y="40"/>
      <point x="158" y="40" type="curve" smooth="yes"/>
      <point x="124" y="40"/>
      <point x="97" y="61"/>
      <point x="84" y="117" type="curve" smooth="yes"/>
      <point x="83" y="122"/>
      <point x="81" y="130"/>
      <point x="70" y="134" type="curve"/>
      <point x="53" y="136"/>
      <point x="36" y="130"/>
      <point x="37" y="116" type="curve" smooth="yes"/>
      <point x="39" y="83"/>
      <point x="42" y="45"/>
      <point x="45" y="7" type="curve" smooth="yes"/>
      <point x="46" y="-6"/>
      <point x="55" y="-10"/>
      <point x="64" y="-12" type="curve" smooth="yes"/>
      <point x="73" y="-14"/>
      <point x="81" y="-10"/>
      <point x="89" y="-7" type="curve"/>
      <point x="92" y="0"/>
      <point x="93" y="2"/>
      <point x="94" y="3" type="curve"/>
      <point x="95" y="3"/>
      <point x="97" y="2"/>
      <point x="100" y="1" type="curve"/>
      <point x="119" y="-7"/>
      <point x="140" y="-10"/>
    </contour>
  </outline>
</glyph>
<glyph name="registered" format="2">
  <advance width="796"/>
  <unicode hex="00AE"/>
  <outline>
    <contour>
      <point x="396" y="-20" type="curve" smooth="yes"/>
      <point x="600" y="-20"/>
      <point x="766" y="145"/>
      <point x="766" y="348" type="curve" smooth="yes"/>
      <point x="766" y="552"/>
      <point x="600" y="717"/>
      <point x="396" y="717" type="curve" smooth="yes"/>
      <point x="191" y="717"/>
      <point x="26" y="552"/>
      <point x="26" y="348" type="curve" smooth="yes"/>
      <point x="26" y="145"/>
      <point x="191" y="-20"/>
    </contour>
    <contour>
      <point x="396" y="654" type="curve" smooth="yes"/>
      <point x="566" y="654"/>
      <point x="704" y="517"/>
      <point x="704" y="348" type="curve" smooth="yes"/>
      <point x="704" y="179"/>
      <point x="566" y="42"/>
      <point x="396" y="42" type="curve" smooth="yes"/>
      <point x="226" y="42"/>
      <point x="89" y="179"/>
      <point x="89" y="348" type="curve" smooth="yes"/>
      <point x="89" y="517"/>
      <point x="226" y="654"/>
    </contour>
    <contour>
      <point x="580" y="129" type="curve" smooth="yes"/>
      <point x="588" y="129"/>
      <point x="607" y="132"/>
      <point x="607" y="151" type="curve" smooth="yes"/>
      <point x="607" y="165" type="line" smooth="yes"/>
      <point x="607" y="171"/>
      <point x="601" y="176"/>
      <point x="592" y="177" type="curve"/>
      <point x="575" y="178"/>
      <point x="567" y="184"/>
      <point x="547" y="212" type="curve" smooth="yes"/>
      <point x="464" y="325" type="line" smooth="yes"/>
      <point x="457" y="334"/>
      <point x="458" y="334"/>
      <point x="468" y="338" type="curve" smooth="yes"/>
      <point x="524" y="359"/>
      <point x="555" y="395"/>
      <point x="555" y="449" type="curve" smooth="yes"/>
      <point x="555" y="524"/>
      <point x="487" y="570"/>
      <point x="399" y="570" type="curve" smooth="yes"/>
      <point x="354" y="569"/>
      <point x="266" y="567"/>
      <point x="225" y="570" type="curve"/>
      <point x="213" y="570"/>
      <point x="201" y="568"/>
      <point x="201" y="554" type="curve" smooth="yes"/>
      <point x="201" y="550"/>
      <point x="201" y="545"/>
      <point x="201" y="541" type="curve" smooth="yes"/>
      <point x="201" y="527"/>
      <point x="212" y="523"/>
      <point x="220" y="523" type="curve" smooth="yes"/>
      <point x="243" y="522"/>
      <point x="245" y="520"/>
      <point x="245" y="474" type="curve" smooth="yes"/>
      <point x="245" y="226" type="line" smooth="yes"/>
      <point x="245" y="181"/>
      <point x="239" y="178"/>
      <point x="212" y="177" type="curve" smooth="yes"/>
      <point x="205" y="177"/>
      <point x="195" y="174"/>
      <point x="195" y="160" type="curve" smooth="yes"/>
      <point x="195" y="145" type="line" smooth="yes"/>
      <point x="195" y="128"/>
      <point x="212" y="129"/>
      <point x="215" y="129" type="curve"/>
      <point x="255" y="132"/>
      <point x="332" y="132"/>
      <point x="380" y="129" type="curve"/>
      <point x="389" y="129"/>
      <point x="400" y="130"/>
      <point x="400" y="142" type="curve" smooth="yes"/>
      <point x="400" y="165" type="line" smooth="yes"/>
      <point x="400" y="177"/>
      <point x="393" y="175"/>
      <point x="384" y="177" type="curve" smooth="yes"/>
      <point x="367" y="181"/>
      <point x="344" y="175"/>
      <point x="344" y="190" type="curve" smooth="yes"/>
      <point x="344" y="225" type="line"/>
      <point x="344" y="309" type="line" smooth="yes"/>
      <point x="344" y="312"/>
      <point x="344" y="316"/>
      <point x="344" y="319" type="curve" smooth="yes"/>
      <point x="344" y="321"/>
      <point x="349" y="321"/>
      <point x="350" y="321" type="curve" smooth="yes"/>
      <point x="355" y="321" type="line"/>
      <point x="488" y="140" type="line" smooth="yes"/>
      <point x="493" y="133"/>
      <point x="505" y="129"/>
      <point x="515" y="129" type="curve"/>
      <point x="534" y="130"/>
      <point x="556" y="130"/>
    </contour>
    <contour>
      <point x="368" y="518" type="curve" smooth="yes"/>
      <point x="415" y="518"/>
      <point x="448" y="486"/>
      <point x="448" y="443" type="curve" smooth="yes"/>
      <point x="448" y="403"/>
      <point x="418" y="374"/>
      <point x="351" y="372" type="curve" smooth="yes"/>
      <point x="345" y="372"/>
      <point x="344" y="378"/>
      <point x="344" y="387" type="curve" smooth="yes"/>
      <point x="344" y="515" type="line"/>
      <point x="353" y="518"/>
      <point x="358" y="518"/>
    </contour>
  </outline>
</glyph>
<glyph name="paragraph" format="2">
  <advance width="494"/>
  <unicode hex="00B6"/>
  <outline>
    <contour>
      <point x="461" y="592" type="line" smooth="yes"/>
      <point x="472" y="592"/>
      <point x="488" y="590"/>
      <point x="488" y="614" type="curve" smooth="yes"/>
      <point x="488" y="637" type="line" smooth="yes"/>
      <point x="488" y="658"/>
      <point x="479" y="662"/>
      <point x="459" y="661" type="curve" smooth="yes"/>
      <point x="407" y="658"/>
      <point x="287" y="660"/>
      <point x="226" y="660" type="curve" smooth="yes"/>
      <point x="80" y="659"/>
      <point x="-12" y="584"/>
      <point x="-12" y="453" type="curve" smooth="yes"/>
      <point x="-12" y="417"/>
      <point x="-5" y="383"/>
      <point x="12" y="352" type="curve" smooth="yes"/>
      <point x="47" y="285"/>
      <point x="108" y="250"/>
      <point x="215" y="248" type="curve" smooth="yes"/>
      <point x="222" y="248"/>
      <point x="223" y="238"/>
      <point x="223" y="234" type="curve" smooth="yes"/>
      <point x="223" y="-223" type="line" smooth="yes"/>
      <point x="223" y="-238"/>
      <point x="226" y="-247"/>
      <point x="248" y="-247" type="curve" smooth="yes"/>
      <point x="270" y="-247" type="line" smooth="yes"/>
      <point x="282" y="-247"/>
      <point x="296" y="-246"/>
      <point x="296" y="-227" type="curve" smooth="yes"/>
      <point x="295" y="577" type="line" smooth="yes"/>
      <point x="295" y="584"/>
      <point x="300" y="590"/>
      <point x="303" y="590" type="curve" smooth="yes"/>
      <point x="342" y="590" type="line" smooth="yes"/>
      <point x="351" y="590"/>
      <point x="352" y="585"/>
      <point x="352" y="575" type="curve"/>
      <point x="351" y="-224" type="line"/>
      <point x="351" y="-246"/>
      <point x="369" y="-246"/>
      <point x="378" y="-246" type="curve" smooth="yes"/>
      <point x="395" y="-246" type="line" smooth="yes"/>
      <point x="416" y="-246"/>
      <point x="422" y="-244"/>
      <point x="422" y="-223" type="curve" smooth="yes"/>
      <point x="422" y="575" type="line" smooth="yes"/>
      <point x="422" y="582"/>
      <point x="427" y="592"/>
      <point x="435" y="592" type="curve" smooth="yes"/>
    </contour>
  </outline>
</glyph>
<glyph name="guillemotright" format="2">
  <advance width="371"/>
  <unicode hex="00BB"/>
  <outline>
    <contour>
      <point x="334" y="211" type="line"/>
      <point x="340" y="217"/>
      <point x="348" y="233"/>
      <point x="339" y="244" type="curve" smooth="yes"/>
      <point x="200" y="418" type="line" smooth="yes"/>
      <point x="193" y="427"/>
      <point x="189" y="430"/>
      <point x="181" y="430" type="curve" smooth="yes"/>
      <point x="159" y="430" type="line" smooth="yes"/>
      <point x="146" y="430"/>
      <point x="143" y="422"/>
      <point x="150" y="408" type="curve" smooth="yes"/>
      <point x="241" y="231" type="line"/>
      <point x="146" y="47" type="line" smooth="yes"/>
      <point x="142" y="39"/>
      <point x="145" y="33"/>
      <point x="159" y="33" type="curve" smooth="yes"/>
      <point x="182" y="33" type="line" smooth="yes"/>
      <point x="192" y="33"/>
      <point x="192" y="35"/>
      <point x="198" y="42" type="curve" smooth="yes"/>
    </contour>
    <contour>
      <point x="194" y="211" type="line" smooth="yes"/>
      <point x="200" y="220"/>
      <point x="207" y="231"/>
      <point x="199" y="242" type="curve" smooth="yes"/>
      <point x="89" y="403" type="line"/>
      <point x="86" y="408"/>
      <point x="83" y="414"/>
      <point x="76" y="414" type="curve" smooth="yes"/>
      <point x="73" y="414" type="line"/>
      <point x="51" y="414" type="line" smooth="yes"/>
      <point x="38" y="414"/>
      <point x="37" y="401"/>
      <point x="41" y="392" type="curve"/>
      <point x="101" y="230" type="line"/>
      <point x="39" y="69" type="line" smooth="yes"/>
      <point x="35" y="58"/>
      <point x="36" y="50"/>
      <point x="50" y="50" type="curve" smooth="yes"/>
      <point x="73" y="50" type="line" smooth="yes"/>
      <point x="84" y="50"/>
      <point x="83" y="52"/>
      <point x="90" y="62" type="curve" smooth="yes"/>
    </contour>
  </outline>
</glyph>
<glyph name="threequarters" format="2">
  <advance width="715"/>
  <unicode hex="00BE"/>
  <outline>
    <contour>
      <point x="542" y="-17" type="curve"/>
      <point x="546" y="-18"/>
      <point x="558" y="-18"/>
      <point x="569" y="-18" type="curve" smooth="yes"/>
      <point x="580" y="-18"/>
      <point x="591" y="-18"/>
      <point x="592" y="-18" type="curve" smooth="yes"/>
      <point x="611" y="-18"/>
      <point x="612" y="-10"/>
      <point x="612" y="5" type="curve" smooth="yes"/>
      <point x="611" y="70" type="line" smooth="yes"/>
      <point x="611" y="78"/>
      <point x="614" y="81"/>
      <point x="617" y="82" type="curve"/>
      <point x="655" y="82" type="line" smooth="yes"/>
      <point x="660" y="82"/>
      <point x="668" y="86"/>
      <point x="671" y="93" type="curve"/>
      <point x="675" y="101"/>
      <point x="674" y="118"/>
      <point x="674" y="126" type="curve" smooth="yes"/>
      <point x="674" y="140"/>
      <point x="668" y="149"/>
      <point x="650" y="149" type="curve" smooth="yes"/>
      <point x="619" y="149" type="line"/>
      <point x="619" y="149"/>
      <point x="611" y="150"/>
      <point x="611" y="153" type="curve" smooth="yes"/>
      <point x="611" y="327" type="line"/>
      <point x="613" y="341"/>
      <point x="601" y="348"/>
      <point x="593" y="349" type="curve"/>
      <point x="579" y="352"/>
      <point x="571" y="350"/>
      <point x="557" y="346" type="curve"/>
      <point x="379" y="121" type="line"/>
      <point x="379" y="103" type="line"/>
      <point x="379" y="103" type="line"/>
      <point x="379" y="91"/>
      <point x="384" y="82"/>
      <point x="403" y="82" type="curve" smooth="yes"/>
      <point x="520" y="82" type="line" smooth="yes"/>
      <point x="522" y="82"/>
      <point x="524" y="80"/>
      <point x="525" y="69" type="curve"/>
      <point x="525" y="0" type="line"/>
      <point x="528" y="-10"/>
      <point x="533" y="-16"/>
    </contour>
    <contour>
      <point x="521" y="211" type="line" smooth="yes"/>
      <point x="524" y="215"/>
      <point x="526" y="216"/>
      <point x="526" y="209" type="curve"/>
      <point x="525" y="155" type="line"/>
      <point x="524" y="149"/>
      <point x="520" y="149"/>
      <point x="518" y="149" type="curve" smooth="yes"/>
      <point x="475" y="149" type="line"/>
    </contour>
    <contour>
      <point x="162" y="-22" type="curve" smooth="yes"/>
      <point x="625" y="625" type="line" smooth="yes"/>
      <point x="634" y="639"/>
      <point x="625" y="647"/>
      <point x="612" y="653" type="curve" smooth="yes"/>
      <point x="591" y="662" type="line" smooth="yes"/>
      <point x="579" y="667"/>
      <point x="565" y="660"/>
      <point x="558" y="650" type="curve" smooth="yes"/>
      <point x="95" y="4" type="line"/>
      <point x="92" y="-2" type="line"/>
      <point x="90" y="-8"/>
      <point x="81" y="-23"/>
      <point x="106" y="-31" type="curve" smooth="yes"/>
      <point x="132" y="-38"/>
      <point x="144" y="-47"/>
    </contour>
    <contour>
      <point x="122" y="281" type="curve" smooth="yes"/>
      <point x="207" y="281"/>
      <point x="290" y="340"/>
      <point x="290" y="417" type="curve" smooth="yes"/>
      <point x="290" y="461"/>
      <point x="267" y="494"/>
      <point x="228" y="510" type="curve"/>
      <point x="246" y="526"/>
      <point x="257" y="546"/>
      <point x="257" y="568" type="curve" smooth="yes"/>
      <point x="257" y="617"/>
      <point x="207" y="644"/>
      <point x="158" y="644" type="curve" smooth="yes"/>
      <point x="102" y="644"/>
      <point x="52" y="611"/>
      <point x="28" y="555" type="curve" smooth="yes"/>
      <point x="17" y="531"/>
      <point x="67" y="519"/>
      <point x="79" y="531" type="curve"/>
      <point x="96" y="564"/>
      <point x="120" y="576"/>
      <point x="138" y="576" type="curve" smooth="yes"/>
      <point x="160" y="576"/>
      <point x="170" y="564"/>
      <point x="170" y="553" type="curve" smooth="yes"/>
      <point x="170" y="511"/>
      <point x="54" y="490"/>
      <point x="104" y="441" type="curve"/>
      <point x="114" y="430"/>
      <point x="121" y="433"/>
      <point x="134" y="442" type="curve" smooth="yes"/>
      <point x="147" y="451"/>
      <point x="154" y="452"/>
      <point x="162" y="452" type="curve" smooth="yes"/>
      <point x="180" y="452"/>
      <point x="200" y="434"/>
      <point x="200" y="404" type="curve" smooth="yes"/>
      <point x="200" y="366"/>
      <point x="170" y="337"/>
      <point x="141" y="337" type="curve" smooth="yes"/>
      <point x="110" y="337"/>
      <point x="91" y="376"/>
      <point x="55" y="376" type="curve" smooth="yes"/>
      <point x="34" y="376"/>
      <point x="12" y="360"/>
      <point x="12" y="337" type="curve" smooth="yes"/>
      <point x="12" y="296"/>
      <point x="79" y="281"/>
    </contour>
  </outline>
</glyph>
<glyph name="Ccedilla" format="2">
  <advance width="762"/>
  <unicode hex="00C7"/>
  <outline>
    <contour>
      <point x="628" y="2" type="curve"/>
      <point x="638" y="1"/>
      <point x="688" y="122"/>
      <point x="702" y="167" type="curve" smooth="yes"/>
      <point x="709" y="192"/>
      <point x="661" y="194"/>
      <point x="651" y="176" type="curve" smooth="yes"/>
      <point x="627" y="131"/>
      <point x="619" y="123"/>
      <point x="594" y="101" type="curve" smooth="yes"/>
      <point x="549" y="60"/>
      <point x="505" y="41"/>
      <point x="441" y="41" type="curve" smooth="yes"/>
      <point x="289" y="41"/>
      <point x="181" y="165"/>
      <point x="181" y="336" type="curve" smooth="yes"/>
      <point x="181" y="503"/>
      <point x="275" y="607"/>
      <point x="427" y="607" type="curve" smooth="yes"/>
      <point x="525" y="607"/>
      <point x="592" y="552"/>
      <point x="624" y="459" type="curve"/>
      <point x="636" y="441"/>
      <point x="669" y="449"/>
      <point x="674" y="471" type="curve"/>
      <point x="673" y="490"/>
      <point x="674" y="509"/>
      <point x="674" y="531" type="curve" smooth="yes"/>
      <point x="675" y="554"/>
      <point x="673" y="582"/>
      <point x="664" y="621" type="curve" smooth="yes"/>
      <point x="661" y="634"/>
      <point x="632" y="634"/>
      <point x="624" y="628" type="curve"/>
      <point x="616" y="621"/>
      <point x="605" y="624"/>
      <point x="596" y="627" type="curve" smooth="yes"/>
      <point x="528" y="651"/>
      <point x="494" y="665"/>
      <point x="421" y="665" type="curve" smooth="yes"/>
      <point x="201" y="665"/>
      <point x="48" y="523"/>
      <point x="48" y="317" type="curve" smooth="yes"/>
      <point x="48" y="134"/>
      <point x="179" y="-4"/>
      <point x="372" y="-20" type="curve"/>
      <point x="375" y="-20"/>
      <point x="378" y="-25"/>
      <point x="375" y="-31" type="curve"/>
      <point x="319" y="-122" type="line" smooth="yes"/>
      <point x="313" y="-131"/>
      <point x="312" y="-140"/>
      <point x="315" y="-146" type="curve"/>
      <point x="318" y="-153"/>
      <point x="323" y="-155"/>
      <point x="331" y="-152" type="curve"/>
      <point x="366" y="-134"/>
      <point x="374" y="-134"/>
      <point x="383" y="-134" type="curve" smooth="yes"/>
      <point x="393" y="-134"/>
      <point x="404" y="-147"/>
      <point x="404" y="-164" type="curve" smooth="yes"/>
      <point x="404" y="-183"/>
      <point x="378" y="-219"/>
      <point x="358" y="-219" type="curve" smooth="yes"/>
      <point x="346" y="-219"/>
      <point x="328" y="-206"/>
      <point x="320" y="-220" type="curve"/>
      <point x="318" y="-223"/>
      <point x="315" y="-229"/>
      <point x="314" y="-231" type="curve" smooth="yes"/>
      <point x="309" y="-240"/>
      <point x="314" y="-249"/>
      <point x="331" y="-256" type="curve"/>
      <point x="348" y="-262"/>
      <point x="355" y="-261"/>
      <point x="368" y="-261" type="curve" smooth="yes"/>
      <point x="423" y="-261"/>
      <point x="474" y="-198"/>
      <point x="474" y="-144" type="curve" smooth="yes"/>
      <point x="474" y="-107"/>
      <point x="453" y="-76"/>
      <point x="422" y="-64" type="curve"/>
      <point x="420" y="-63"/>
      <point x="410" y="-60"/>
      <point x="411" y="-56" type="curve"/>
      <point x="427" y="-28" type="line"/>
      <point x="429" y="-24"/>
      <point x="434" y="-21"/>
      <point x="439" y="-21" type="curve" smooth="yes"/>
      <point x="468" y="-20"/>
      <point x="498" y="-16"/>
      <point x="527" y="-7" type="curve" smooth="yes"/>
      <point x="555" y="2"/>
      <point x="569" y="7"/>
      <point x="600" y="7" type="curve" smooth="yes"/>
      <point x="606" y="7"/>
      <point x="609" y="7"/>
    </contour>
  </outline>
</glyph>
<glyph name="Iacute" format="2">
  <advance width="363"/>
  <unicode hex="00CD"/>
  <outline>
    <contour>
      <point x="156" y="714" type="curve"/>
      <point x="156" y="714"/>
      <point x="257" y="838"/>
      <point x="286" y="875" type="curve" smooth="yes"/>
      <point x="300" y="892"/>
      <point x="305" y="911"/>
      <point x="271" y="914" type="curve" smooth="yes"/>
      <point x="254" y="916"/>
      <point x="226" y="913"/>
      <point x="188" y="913" type="curve" smooth="yes"/>
      <point x="177" y="913"/>
      <point x="166" y="905"/>
      <point x="160" y="894" type="curve"/>
      <point x="113" y="733" type="line" smooth="yes"/>
      <point x="105" y="705"/>
      <point x="146" y="702"/>
    </contour>
    <contour>
      <point x="308" y="604" type="curve"/>
      <point x="318" y="605"/>
      <point x="323" y="624"/>
      <point x="322" y="637" type="curve" smooth="yes"/>
      <point x="320" y="655"/>
      <point x="306" y="657"/>
      <point x="296" y="656" type="curve"/>
      <point x="174" y="651"/>
      <point x="183" y="655"/>
      <point x="71" y="657" type="curve" smooth="yes"/>
      <point x="45" y="657"/>
      <point x="40" y="608"/>
      <point x="71" y="605" type="curve" smooth="yes"/>
      <point x="118" y="599"/>
      <point x="122" y="593"/>
      <point x="123" y="546" type="curve" smooth="yes"/>
      <point x="124" y="512" type="line"/>
      <point x="124" y="141" type="line"/>
      <point x="123" y="107" type="line" smooth="yes"/>
      <point x="122" y="60"/>
      <point x="121" y="56"/>
      <point x="65" y="51" type="curve" smooth="yes"/>
      <point x="54" y="50"/>
      <point x="47" y="32"/>
      <point x="47" y="22" type="curve" smooth="yes"/>
      <point x="47" y="8"/>
      <point x="56" y="-3"/>
      <point x="69" y="-3" type="curve" smooth="yes"/>
      <point x="129" y="-1"/>
      <point x="246" y="-1"/>
      <point x="307" y="-3" type="curve" smooth="yes"/>
      <point x="328" y="-4"/>
      <point x="329" y="40"/>
      <point x="312" y="51" type="curve"/>
      <point x="294" y="56"/>
      <point x="267" y="50"/>
      <point x="252" y="61" type="curve"/>
      <point x="243" y="66"/>
      <point x="238" y="78"/>
      <point x="238" y="107" type="curve" smooth="yes"/>
      <point x="238" y="512" type="line" smooth="yes"/>
      <point x="238" y="600"/>
      <point x="244" y="602"/>
      <point x="294" y="603" type="curve" smooth="yes"/>
      <point x="299" y="603"/>
      <point x="303" y="604"/>
    </contour>
  </outline>
</glyph>
<glyph name="Oacute" format="2">
  <advance width="827"/>
  <unicode hex="00D3"/>
  <outline>
    <contour>
      <point x="548" y="873" type="line"/>
      <point x="550" y="876"/>
      <point x="551" y="880"/>
      <point x="551" y="884" type="curve"/>
      <point x="554" y="898"/>
      <point x="545" y="904"/>
      <point x="522" y="905" type="curve" smooth="yes"/>
      <point x="504" y="906"/>
      <point x="476" y="904"/>
      <point x="440" y="904" type="curve" smooth="yes"/>
      <point x="430" y="904"/>
      <point x="417" y="897"/>
      <point x="413" y="884" type="curve" smooth="yes"/>
      <point x="365" y="724" type="line" smooth="yes"/>
      <point x="356" y="696"/>
      <point x="393" y="695"/>
      <point x="403" y="707" type="curve" smooth="yes"/>
    </contour>
    <contour>
      <point x="413" y="-19" type="curve" smooth="yes"/>
      <point x="622" y="-19"/>
      <point x="777" y="139"/>
      <point x="777" y="340" type="curve" smooth="yes"/>
      <point x="777" y="529"/>
      <point x="626" y="669"/>
      <point x="415" y="669" type="curve" smooth="yes"/>
      <point x="200" y="669"/>
      <point x="45" y="517"/>
      <point x="45" y="314" type="curve" smooth="yes"/>
      <point x="45" y="125"/>
      <point x="202" y="-19"/>
    </contour>
    <contour>
      <point x="387" y="612" type="curve" smooth="yes"/>
      <point x="542" y="612"/>
      <point x="646" y="489"/>
      <point x="646" y="311" type="curve" smooth="yes"/>
      <point x="646" y="164"/>
      <point x="594" y="40"/>
      <point x="430" y="40" type="curve" smooth="yes"/>
      <point x="282" y="40"/>
      <point x="176" y="166"/>
      <point x="176" y="339" type="curve" smooth="yes"/>
      <point x="176" y="503"/>
      <point x="260" y="612"/>
    </contour>
  </outline>
</glyph>
<glyph name="Oslash" format="2">
  <advance width="851"/>
  <unicode hex="00D8"/>
  <outline>
    <contour>
      <point x="429" y="-22" type="curve" smooth="yes"/>
      <point x="643" y="-22"/>
      <point x="812" y="136"/>
      <point x="812" y="341" type="curve" smooth="yes"/>
      <point x="812" y="441"/>
      <point x="774" y="518"/>
      <point x="698" y="584" type="curve" smooth="yes"/>
      <point x="693" y="588"/>
      <point x="701" y="595"/>
      <point x="704" y="598" type="curve"/>
      <point x="753" y="654" type="line" smooth="yes"/>
      <point x="762" y="664"/>
      <point x="771" y="679"/>
      <point x="756" y="691" type="curve" smooth="yes"/>
      <point x="748" y="697" type="line" smooth="yes"/>
      <point x="734" y="707"/>
      <point x="721" y="699"/>
      <point x="716" y="695" type="curve"/>
      <point x="661" y="627" type="line" smooth="yes"/>
      <point x="656" y="621"/>
      <point x="652" y="617"/>
      <point x="648" y="619" type="curve"/>
      <point x="581" y="659"/>
      <point x="509" y="676"/>
      <point x="432" y="676" type="curve" smooth="yes"/>
      <point x="214" y="676"/>
      <point x="43" y="521"/>
      <point x="43" y="317" type="curve" smooth="yes"/>
      <point x="43" y="218"/>
      <point x="87" y="131"/>
      <point x="161" y="69" type="curve" smooth="yes"/>
      <point x="167" y="64"/>
      <point x="160" y="57"/>
      <point x="156" y="52" type="curve"/>
      <point x="85" y="-27" type="line" smooth="yes"/>
      <point x="73" y="-40"/>
      <point x="79" y="-52"/>
      <point x="89" y="-61" type="curve"/>
      <point x="104" y="-72"/>
      <point x="113" y="-77"/>
      <point x="129" y="-59" type="curve" smooth="yes"/>
      <point x="199" y="23" type="line"/>
      <point x="207" y="31"/>
      <point x="215" y="33"/>
      <point x="219" y="31" type="curve" smooth="yes"/>
      <point x="282" y="-3"/>
      <point x="355" y="-22"/>
    </contour>
    <contour>
      <point x="403" y="618" type="curve" smooth="yes"/>
      <point x="474" y="618"/>
      <point x="536" y="596"/>
      <point x="585" y="552" type="curve"/>
      <point x="590" y="547"/>
      <point x="579" y="537"/>
      <point x="575" y="533" type="curve" smooth="yes"/>
      <point x="488" y="439"/>
      <point x="334" y="260"/>
      <point x="248" y="157" type="curve" smooth="yes"/>
      <point x="239" y="146"/>
      <point x="236" y="142"/>
      <point x="231" y="150" type="curve"/>
      <point x="193" y="202"/>
      <point x="175" y="269"/>
      <point x="175" y="343" type="curve" smooth="yes"/>
      <point x="175" y="509"/>
      <point x="272" y="618"/>
    </contour>
    <contour>
      <point x="613" y="494" type="curve" smooth="yes"/>
      <point x="619" y="501"/>
      <point x="626" y="506"/>
      <point x="630" y="499" type="curve"/>
      <point x="700" y="392"/>
      <point x="698" y="229"/>
      <point x="624" y="124" type="curve" smooth="yes"/>
      <point x="580" y="61"/>
      <point x="526" y="35"/>
      <point x="447" y="35" type="curve" smooth="yes"/>
      <point x="384" y="35"/>
      <point x="329" y="54"/>
      <point x="279" y="96" type="curve"/>
      <point x="278" y="97"/>
      <point x="276" y="108"/>
      <point x="282" y="114" type="curve"/>
      <point x="368" y="213"/>
      <point x="526" y="395"/>
    </contour>
  </outline>
</glyph>
<glyph name="Thorn" format="2">
  <advance width="589"/>
  <unicode hex="00DE"/>
  <outline>
    <contour>
      <point x="231" y="133" type="curve"/>
      <point x="231" y="140"/>
      <point x="233" y="142"/>
      <point x="238" y="141" type="curve"/>
      <point x="259" y="138"/>
      <point x="277" y="138"/>
      <point x="299" y="138" type="curve" smooth="yes"/>
      <point x="456" y="138"/>
      <point x="559" y="214"/>
      <point x="559" y="344" type="curve" smooth="yes"/>
      <point x="559" y="436"/>
      <point x="498" y="505"/>
      <point x="411" y="527" type="curve" smooth="yes"/>
      <point x="355" y="541"/>
      <point x="297" y="542"/>
      <point x="240" y="542" type="curve" smooth="yes"/>
      <point x="236" y="542"/>
      <point x="231" y="547"/>
      <point x="231" y="550" type="curve" smooth="yes"/>
      <point x="231" y="564"/>
      <point x="228" y="584"/>
      <point x="236" y="597" type="curve"/>
      <point x="243" y="607"/>
      <point x="280" y="607"/>
      <point x="291" y="607" type="curve" smooth="yes"/>
      <point x="294" y="607"/>
      <point x="297" y="607"/>
      <point x="300" y="608" type="curve"/>
      <point x="307" y="609"/>
      <point x="311" y="617"/>
      <point x="311" y="628" type="curve" smooth="yes"/>
      <point x="311" y="639" type="line" smooth="yes"/>
      <point x="311" y="655"/>
      <point x="300" y="659"/>
      <point x="286" y="658" type="curve" smooth="yes"/>
      <point x="221" y="656"/>
      <point x="92" y="658"/>
      <point x="38" y="659" type="curve" smooth="yes"/>
      <point x="29" y="659"/>
      <point x="18" y="658"/>
      <point x="18" y="639" type="curve" smooth="yes"/>
      <point x="18" y="630" type="line" smooth="yes"/>
      <point x="18" y="619"/>
      <point x="19" y="611"/>
      <point x="29" y="609" type="curve"/>
      <point x="44" y="604"/>
      <point x="75" y="611"/>
      <point x="91" y="605" type="curve"/>
      <point x="101" y="604"/>
      <point x="103" y="603"/>
      <point x="106" y="599" type="curve"/>
      <point x="109" y="592"/>
      <point x="111" y="581"/>
      <point x="111" y="541" type="curve" smooth="yes"/>
      <point x="111" y="135" type="line"/>
      <point x="111" y="90" type="line" smooth="yes"/>
      <point x="111" y="53"/>
      <point x="99" y="47"/>
      <point x="61" y="47" type="curve" smooth="yes"/>
      <point x="45" y="47"/>
      <point x="35" y="42"/>
      <point x="33" y="33" type="curve" smooth="yes"/>
      <point x="31" y="25"/>
      <point x="33" y="21"/>
      <point x="32" y="15" type="curve"/>
      <point x="30" y="-7"/>
      <point x="44" y="-5"/>
      <point x="55" y="-5" type="curve" smooth="yes"/>
      <point x="124" y="-2"/>
      <point x="254" y="-2"/>
      <point x="321" y="-4" type="curve" smooth="yes"/>
      <point x="348" y="-5"/>
      <point x="348" y="14"/>
      <point x="347" y="29" type="curve"/>
      <point x="347" y="40"/>
      <point x="342" y="47"/>
      <point x="326" y="48" type="curve" smooth="yes"/>
      <point x="316" y="49"/>
      <point x="297" y="48"/>
      <point x="296" y="48" type="curve" smooth="yes"/>
      <point x="241" y="48"/>
      <point x="231" y="62"/>
      <point x="231" y="108" type="curve" smooth="yes"/>
      <point x="231" y="117"/>
      <point x="230" y="124"/>
    </contour>
    <contour>
      <point x="371" y="474" type="curve" smooth="yes"/>
      <point x="408" y="455"/>
      <point x="431" y="410"/>
      <point x="431" y="350" type="curve" smooth="yes"/>
      <point x="431" y="254"/>
      <point x="367" y="190"/>
      <point x="271" y="190" type="curve" smooth="yes"/>
      <point x="256" y="190"/>
      <point x="247" y="191"/>
      <point x="235" y="193" type="curve"/>
      <point x="235" y="193"/>
      <point x="231" y="195"/>
      <point x="231" y="206" type="curve" smooth="yes"/>
      <point x="231" y="484" type="line" smooth="yes"/>
      <point x="231" y="489"/>
      <point x="240" y="491"/>
      <point x="244" y="491" type="curve"/>
      <point x="286" y="496"/>
      <point x="335" y="493"/>
    </contour>
  </outline>
</glyph>
<glyph name="oslash" format="2">
  <advance width="545"/>
  <unicode hex="00F8"/>
  <outline>
    <contour>
      <point x="454" y="355" type="curve"/>
      <point x="448" y="361"/>
      <point x="449" y="364"/>
      <point x="452" y="368" type="curve"/>
      <point x="462" y="380"/>
      <point x="473" y="393"/>
      <point x="484" y="405" type="curve" smooth="yes"/>
      <point x="496" y="419"/>
      <point x="502" y="422"/>
      <point x="493" y="434" type="curve"/>
      <point x="488" y="440"/>
      <point x="486" y="443"/>
      <point x="480" y="448" type="curve"/>
      <point x="473" y="455"/>
      <point x="462" y="457"/>
      <point x="454" y="447" type="curve"/>
      <point x="413" y="401" type="line" smooth="yes"/>
      <point x="408" y="395"/>
      <point x="409" y="394"/>
      <point x="400" y="399" type="curve" smooth="yes"/>
      <point x="361" y="422"/>
      <point x="321" y="433"/>
      <point x="275" y="433" type="curve" smooth="yes"/>
      <point x="141" y="433"/>
      <point x="40" y="335"/>
      <point x="40" y="205" type="curve" smooth="yes"/>
      <point x="40" y="146"/>
      <point x="60" y="98"/>
      <point x="99" y="57" type="curve" smooth="yes"/>
      <point x="103" y="53"/>
      <point x="102" y="48"/>
      <point x="99" y="44" type="curve"/>
      <point x="82" y="26"/>
      <point x="64" y="5"/>
      <point x="52" y="-9" type="curve" smooth="yes"/>
      <point x="39" y="-25"/>
      <point x="41" y="-31"/>
      <point x="50" y="-38" type="curve" smooth="yes"/>
      <point x="60" y="-46" type="line"/>
      <point x="69" y="-55"/>
      <point x="81" y="-54"/>
      <point x="90" y="-46" type="curve"/>
      <point x="143" y="19" type="line"/>
      <point x="144" y="20"/>
      <point x="144" y="20"/>
      <point x="145" y="20" type="curve"/>
      <point x="185" y="-5"/>
      <point x="231" y="-18"/>
      <point x="278" y="-18" type="curve" smooth="yes"/>
      <point x="408" y="-18"/>
      <point x="510" y="79"/>
      <point x="510" y="207" type="curve" smooth="yes"/>
      <point x="510" y="265"/>
      <point x="491" y="313"/>
    </contour>
    <contour>
      <point x="261" y="378" type="curve" smooth="yes"/>
      <point x="292" y="378"/>
      <point x="321" y="364"/>
      <point x="346" y="337" type="curve" smooth="yes"/>
      <point x="349" y="334"/>
      <point x="351" y="331"/>
      <point x="347" y="326" type="curve" smooth="yes"/>
      <point x="179" y="136" type="line"/>
      <point x="174" y="131"/>
      <point x="171" y="133"/>
      <point x="168" y="138" type="curve"/>
      <point x="155" y="169"/>
      <point x="150" y="200"/>
      <point x="150" y="236" type="curve" smooth="yes"/>
      <point x="150" y="322"/>
      <point x="199" y="378"/>
    </contour>
    <contour>
      <point x="374" y="280" type="line"/>
      <point x="377" y="284"/>
      <point x="380" y="282"/>
      <point x="382" y="276" type="curve"/>
      <point x="396" y="245"/>
      <point x="402" y="214"/>
      <point x="402" y="183" type="curve" smooth="yes"/>
      <point x="402" y="95"/>
      <point x="350" y="38"/>
      <point x="289" y="38" type="curve" smooth="yes"/>
      <point x="260" y="38"/>
      <point x="230" y="51"/>
      <point x="206" y="77" type="curve" smooth="yes"/>
      <point x="202" y="81"/>
      <point x="202" y="84"/>
      <point x="204" y="87" type="curve"/>
    </contour>
  </outline>
</glyph>
<glyph name="Ydieresis" format="2">
  <advance width="728"/>
  <unicode hex="0178"/>
  <outline>
    <contour>
      <point x="481" y="706" type="curve" smooth="yes"/>
      <point x="520" y="706"/>
      <point x="550" y="737"/>
      <point x="550" y="775" type="curve" smooth="yes"/>
      <point x="550" y="813"/>
      <point x="520" y="844"/>
      <point x="481" y="844" type="curve" smooth="yes"/>
      <point x="442" y="844"/>
      <point x="411" y="813"/>
      <point x="411" y="775" type="curve" smooth="yes"/>
      <point x="411" y="737"/>
      <point x="442" y="706"/>
    </contour>
    <contour>
      <point x="306" y="706" type="curve" smooth="yes"/>
      <point x="345" y="706"/>
      <point x="376" y="736"/>
      <point x="376" y="775" type="curve" smooth="yes"/>
      <point x="376" y="813"/>
      <point x="345" y="844"/>
      <point x="306" y="844" type="curve" smooth="yes"/>
      <point x="268" y="844"/>
      <point x="236" y="813"/>
      <point x="236" y="775" type="curve" smooth="yes"/>
      <point x="236" y="736"/>
      <point x="268" y="706"/>
    </contour>
    <contour>
      <point x="716" y="599" type="curve"/>
      <point x="731" y="599"/>
      <point x="735" y="617"/>
      <point x="735" y="625" type="curve" smooth="yes"/>
      <point x="735" y="635"/>
      <point x="730" y="650"/>
      <point x="715" y="650" type="curve" smooth="yes"/>
      <point x="638" y="648"/>
      <point x="552" y="648"/>
      <point x="502" y="650" type="curve" smooth="yes"/>
      <point x="464" y="652"/>
      <point x="478" y="604"/>
      <point x="491" y="598" type="curve"/>
      <point x="503" y="598" type="line" smooth="yes"/>
      <point x="543" y="598"/>
      <point x="546" y="594"/>
      <point x="546" y="583" type="curve" smooth="yes"/>
      <point x="546" y="575"/>
      <point x="537" y="554"/>
      <point x="519" y="524" type="curve" smooth="yes"/>
      <point x="413" y="349" type="line" smooth="yes"/>
      <point x="404" y="334"/>
      <point x="401" y="341"/>
      <point x="396" y="349" type="curve" smooth="yes"/>
      <point x="272" y="536" type="line" smooth="yes"/>
      <point x="258" y="558"/>
      <point x="252" y="569"/>
      <point x="249" y="576" type="curve"/>
      <point x="245" y="587"/>
      <point x="245" y="593"/>
      <point x="258" y="596" type="curve"/>
      <point x="265" y="597"/>
      <point x="276" y="597"/>
      <point x="294" y="597" type="curve" smooth="yes"/>
      <point x="333" y="597"/>
      <point x="319" y="651"/>
      <point x="297" y="650" type="curve" smooth="yes"/>
      <point x="244" y="648"/>
      <point x="101" y="649"/>
      <point x="33" y="650" type="curve"/>
      <point x="20" y="652"/>
      <point x="13" y="639"/>
      <point x="11" y="630" type="curve" smooth="yes"/>
      <point x="10" y="625"/>
      <point x="10" y="616"/>
      <point x="11" y="612" type="curve" smooth="yes"/>
      <point x="15" y="598"/>
      <point x="26" y="598"/>
      <point x="35" y="598" type="curve" smooth="yes"/>
      <point x="89" y="596"/>
      <point x="103" y="586"/>
      <point x="149" y="515" type="curve" smooth="yes"/>
      <point x="328" y="240" type="line"/>
      <point x="330" y="203"/>
      <point x="329" y="138"/>
      <point x="327" y="107" type="curve" smooth="yes"/>
      <point x="325" y="74"/>
      <point x="315" y="59"/>
      <point x="285" y="57" type="curve" smooth="yes"/>
      <point x="262" y="56"/>
      <point x="239" y="67"/>
      <point x="228" y="39" type="curve"/>
      <point x="226" y="32"/>
      <point x="225" y="20"/>
      <point x="229" y="10" type="curve"/>
      <point x="233" y="2"/>
      <point x="247" y="-3"/>
      <point x="255" y="-3" type="curve" smooth="yes"/>
      <point x="362" y="0"/>
      <point x="405" y="-2"/>
      <point x="525" y="-4" type="curve" smooth="yes"/>
      <point x="542" y="-4"/>
      <point x="547" y="13"/>
      <point x="547" y="23" type="curve" smooth="yes"/>
      <point x="547" y="34"/>
      <point x="549" y="47"/>
      <point x="537" y="53" type="curve"/>
      <point x="527" y="59"/>
      <point x="517" y="56"/>
      <point x="506" y="56" type="curve"/>
      <point x="471" y="58"/>
      <point x="447" y="65"/>
      <point x="447" y="106" type="curve" smooth="yes"/>
      <point x="447" y="134"/>
      <point x="448" y="205"/>
      <point x="447" y="252" type="curve"/>
      <point x="592" y="493" type="line" smooth="yes"/>
      <point x="623" y="544"/>
      <point x="645" y="595"/>
    </contour>
  </outline>
</glyph>
<glyph name="ellipsis" format="2">
  <advance width="1082"/>
  <unicode hex="2026"/>
  <outline>
    <contour>
      <point x="900" y="-17" type="curve" smooth="yes"/>
      <point x="940" y="-17"/>
      <point x="964" y="6"/>
      <point x="964" y="39" type="curve" smooth="yes"/>
      <point x="964" y="72"/>
      <point x="939" y="101"/>
      <point x="899" y="101" type="curve" smooth="yes"/>
      <point x="860" y="101"/>
      <point x="836" y="76"/>
      <point x="836" y="42" type="curve" smooth="yes"/>
      <point x="836" y="9"/>
      <point x="861" y="-17"/>
    </contour>
    <contour>
      <point x="548" y="-17" type="curve" smooth="yes"/>
      <point x="587" y="-17"/>
      <point x="613" y="5"/>
      <point x="613" y="38" type="curve" smooth="yes"/>
      <point x="613" y="71"/>
      <point x="587" y="100"/>
      <point x="547" y="100" type="curve" smooth="yes"/>
      <point x="507" y="100"/>
      <point x="482" y="73"/>
      <point x="482" y="38" type="curve" smooth="yes"/>
      <point x="482" y="5"/>
      <point x="508" y="-17"/>
    </contour>
    <contour>
      <point x="192" y="-17" type="curve" smooth="yes"/>
      <point x="231" y="-17"/>
      <point x="256" y="7"/>
      <point x="256" y="39" type="curve" smooth="yes"/>
      <point x="256" y="72"/>
      <point x="232" y="101"/>
      <point x="192" y="101" type="curve" smooth="yes"/>
      <point x="153" y="101"/>
      <point x="125" y="76"/>
      <point x="125" y="42" type="curve" smooth="yes"/>
      <point x="125" y="8"/>
      <point x="152" y="-17"/>
    </contour>
  </outline>
</glyph>
<glyph name="Euro" format="2">
  <advance width="489"/>
  <unicode hex="20AC"/>
  <outline>
    <contour>
      <point x="336" y="272" type="curve" smooth="yes"/>
      <point x="166" y="272" type="line"/>
      <point x="165" y="289"/>
      <point x="165" y="306"/>
      <point x="165" y="324" type="curve" smooth="yes"/>
      <point x="165" y="341" type="line"/>
      <point x="336" y="341" type="line" smooth="yes"/>
      <point x="351" y="341"/>
      <point x="352" y="351"/>
      <point x="352" y="366" type="curve" smooth="yes"/>
      <point x="352" y="378" type="line" smooth="yes"/>
      <point x="352" y="388"/>
      <point x="352" y="401"/>
      <point x="336" y="401" type="curve" smooth="yes"/>
      <point x="167" y="401" type="line"/>
      <point x="176" y="516"/>
      <point x="207" y="585"/>
      <point x="274" y="585" type="curve" smooth="yes"/>
      <point x="327" y="585"/>
      <point x="368" y="551"/>
      <point x="385" y="461" type="curve"/>
      <point x="391" y="444"/>
      <point x="425" y="448"/>
      <point x="425" y="472" type="curve" smooth="yes"/>
      <point x="425" y="526"/>
      <point x="424" y="552"/>
      <point x="419" y="607" type="curve" smooth="yes"/>
      <point x="418" y="619"/>
      <point x="393" y="619"/>
      <point x="388" y="613" type="curve"/>
      <point x="384" y="607"/>
      <point x="371" y="610"/>
      <point x="366" y="613" type="curve" smooth="yes"/>
      <point x="331" y="632"/>
      <point x="310" y="640"/>
      <point x="276" y="640" type="curve" smooth="yes"/>
      <point x="178" y="640"/>
      <point x="94" y="544"/>
      <point x="67" y="401" type="curve"/>
      <point x="13" y="401" type="line" smooth="yes"/>
      <point x="-3" y="401"/>
      <point x="-3" y="388"/>
      <point x="-3" y="378" type="curve" smooth="yes"/>
      <point x="-3" y="366" type="line" smooth="yes"/>
      <point x="-3" y="351"/>
      <point x="-3" y="341"/>
      <point x="13" y="341" type="curve" smooth="yes"/>
      <point x="60" y="341" type="line"/>
      <point x="59" y="329"/>
      <point x="59" y="317"/>
      <point x="59" y="305" type="curve" smooth="yes"/>
      <point x="59" y="272" type="line"/>
      <point x="13" y="272" type="line" smooth="yes"/>
      <point x="-3" y="272"/>
      <point x="-3" y="259"/>
      <point x="-3" y="249" type="curve" smooth="yes"/>
      <point x="-3" y="237" type="line" smooth="yes"/>
      <point x="-3" y="222"/>
      <point x="-2" y="212"/>
      <point x="13" y="212" type="curve" smooth="yes"/>
      <point x="66" y="212" type="line"/>
      <point x="90" y="63"/>
      <point x="172" y="-18"/>
      <point x="269" y="-18" type="curve" smooth="yes"/>
      <point x="325" y="-18"/>
      <point x="344" y="-2"/>
      <point x="386" y="-2" type="curve" smooth="yes"/>
      <point x="389" y="-2"/>
      <point x="390" y="-2"/>
      <point x="401" y="-6" type="curve"/>
      <point x="417" y="43"/>
      <point x="432" y="93"/>
      <point x="440" y="143" type="curve" smooth="yes"/>
      <point x="444" y="167"/>
      <point x="403" y="169"/>
      <point x="398" y="151" type="curve" smooth="yes"/>
      <point x="380" y="90"/>
      <point x="345" y="38"/>
      <point x="285" y="38" type="curve" smooth="yes"/>
      <point x="223" y="38"/>
      <point x="186" y="107"/>
      <point x="172" y="212" type="curve"/>
      <point x="336" y="212" type="line" smooth="yes"/>
      <point x="351" y="212"/>
      <point x="352" y="222"/>
      <point x="352" y="237" type="curve" smooth="yes"/>
      <point x="352" y="249" type="line" smooth="yes"/>
      <point x="352" y="259"/>
      <point x="352" y="272"/>
    </contour>
  </outline>
</glyph>
<glyph name="onesuperior" format="2">
  <advance width="300"/>
  <outline>
    <contour>
      <point x="236" y="299" type="curve" smooth="yes"/>
      <point x="246" y="299"/>
      <point x="253" y="313"/>
      <point x="253" y="324" type="curve" smooth="yes"/>
      <point x="253" y="330"/>
      <point x="253" y="334"/>
      <point x="252" y="337" type="curve"/>
      <point x="251" y="350"/>
      <point x="241" y="349"/>
      <point x="230" y="351" type="curve"/>
      <point x="223" y="350"/>
      <point x="212" y="352"/>
      <point x="205" y="352" type="curve" smooth="yes"/>
      <point x="201" y="352"/>
      <point x="201" y="351"/>
      <point x="201" y="354" type="curve" smooth="yes"/>
      <point x="201" y="356"/>
      <point x="201" y="357"/>
      <point x="201" y="360" type="curve" smooth="yes"/>
      <point x="201" y="629" type="line" smooth="yes"/>
      <point x="201" y="640"/>
      <point x="147" y="644"/>
      <point x="143" y="638" type="curve"/>
      <point x="125" y="617"/>
      <point x="86" y="587"/>
      <point x="47" y="563" type="curve"/>
      <point x="34" y="548"/>
      <point x="48" y="523"/>
      <point x="70" y="524" type="curve"/>
      <point x="87" y="530"/>
      <point x="104" y="537"/>
      <point x="119" y="545" type="curve"/>
      <point x="119" y="359" type="line" smooth="yes"/>
      <point x="119" y="353"/>
      <point x="118" y="353"/>
      <point x="110" y="352" type="curve" smooth="yes"/>
      <point x="82" y="349" type="line" smooth="yes"/>
      <point x="72" y="348"/>
      <point x="66" y="334"/>
      <point x="66" y="324" type="curve" smooth="yes"/>
      <point x="66" y="315"/>
      <point x="72" y="299"/>
      <point x="84" y="299" type="curve" smooth="yes"/>
      <point x="132" y="301"/>
      <point x="187" y="301"/>
    </contour>
  </outline>
</glyph>
